<svg width="24" height="24" viewBox="0 0 24 24" fill="none" xmlns="http://www.w3.org/2000/svg">
<path d="M12 2.25C10.0716 2.25 8.18657 2.82183 6.58319 3.89317C4.97982 4.96451 3.73013 6.48726 2.99218 8.26884C2.25422 10.0504 2.06114 12.0108 2.43735 13.9021C2.81355 15.7934 3.74215 17.5307 5.10571 18.8943C6.46928 20.2579 8.20656 21.1865 10.0979 21.5627C11.9892 21.9389 13.9496 21.7458 15.7312 21.0078C17.5127 20.2699 19.0355 19.0202 20.1068 17.4168C21.1782 15.8134 21.75 13.9284 21.75 12C21.7473 9.41498 20.7192 6.93661 18.8913 5.10872C17.0634 3.28084 14.585 2.25273 12 2.25ZM18.0113 14.7319C18.1818 14.8343 18.3047 15.0003 18.3529 15.1934C18.4011 15.3864 18.3706 15.5907 18.2681 15.7612C18.1657 15.9318 17.9997 16.0547 17.8066 16.1029C17.6136 16.1511 17.4093 16.1206 17.2388 16.0181L12.75 13.3247V18.1875C12.75 18.3864 12.671 18.5772 12.5303 18.7178C12.3897 18.8585 12.1989 18.9375 12 18.9375C11.8011 18.9375 11.6103 18.8585 11.4697 18.7178C11.329 18.5772 11.25 18.3864 11.25 18.1875V13.3247L6.76125 16.0181C6.59069 16.1206 6.38641 16.1511 6.19337 16.1029C6.00032 16.0547 5.83432 15.9318 5.73188 15.7612C5.62944 15.5907 5.59895 15.3864 5.64713 15.1934C5.6953 15.0003 5.81819 14.8343 5.98875 14.7319L10.5422 12L5.98875 9.26813C5.81819 9.16569 5.6953 8.99968 5.64713 8.80664C5.59895 8.61359 5.62944 8.40932 5.73188 8.23875C5.83432 8.06818 6.00032 7.9453 6.19337 7.89712C6.38641 7.84895 6.59069 7.87944 6.76125 7.98187L11.25 10.6753V5.8125C11.25 5.61359 11.329 5.42282 11.4697 5.28217C11.6103 5.14152 11.8011 5.0625 12 5.0625C12.1989 5.0625 12.3897 5.14152 12.5303 5.28217C12.671 5.42282 12.75 5.61359 12.75 5.8125V10.6753L17.2388 7.98187C17.3232 7.93115 17.4168 7.89756 17.5143 7.88302C17.6117 7.86848 17.7111 7.87327 17.8066 7.89712C17.9022 7.92098 17.9922 7.96342 18.0714 8.02204C18.1505 8.08065 18.2174 8.15429 18.2681 8.23875C18.3189 8.32321 18.3524 8.41683 18.367 8.51427C18.3815 8.6117 18.3767 8.71105 18.3529 8.80664C18.329 8.90222 18.2866 8.99218 18.228 9.07136C18.1693 9.15054 18.0957 9.2174 18.0113 9.26813L13.4578 12L18.0113 14.7319Z" fill="#53B1FD"/>
</svg>
