<svg width="20" height="20" viewBox="0 0 20 20" fill="none" xmlns="http://www.w3.org/2000/svg">
<path d="M16.6923 7.94219L10.4423 14.1922C10.3842 14.2503 10.3153 14.2964 10.2394 14.3279C10.1636 14.3593 10.0822 14.3755 10.0001 14.3755C9.91797 14.3755 9.83664 14.3593 9.76077 14.3279C9.68489 14.2964 9.61596 14.2503 9.55792 14.1922L3.30792 7.94219C3.19064 7.82491 3.12476 7.66585 3.12476 7.5C3.12476 7.33415 3.19064 7.17509 3.30792 7.05781C3.42519 6.94054 3.58425 6.87465 3.7501 6.87465C3.91596 6.87465 4.07502 6.94054 4.19229 7.05781L10.0001 12.8664L15.8079 7.05781C15.866 6.99974 15.9349 6.95368 16.0108 6.92225C16.0867 6.89083 16.168 6.87465 16.2501 6.87465C16.3322 6.87465 16.4135 6.89083 16.4894 6.92225C16.5653 6.95368 16.6342 6.99974 16.6923 7.05781C16.7504 7.11588 16.7964 7.18482 16.8278 7.26069C16.8593 7.33656 16.8755 7.41788 16.8755 7.5C16.8755 7.58212 16.8593 7.66344 16.8278 7.73931C16.7964 7.81518 16.7504 7.88412 16.6923 7.94219Z" fill="#808080"/>
</svg>
