<svg width="12" height="12" viewBox="0 0 12 12" fill="none" xmlns="http://www.w3.org/2000/svg">
<path d="M8.4375 6.75H7.5V5.25H8.4375C8.77126 5.25 9.09752 5.15103 9.37503 4.96561C9.65253 4.78018 9.86882 4.51663 9.99655 4.20828C10.1243 3.89993 10.1577 3.56063 10.0926 3.23329C10.0275 2.90594 9.86674 2.60526 9.63074 2.36926C9.39474 2.13326 9.09406 1.97254 8.76672 1.90743C8.43937 1.84231 8.10007 1.87573 7.79172 2.00345C7.48337 2.13118 7.21982 2.34747 7.0344 2.62498C6.84897 2.90248 6.75 3.22874 6.75 3.5625V4.5H5.25V3.5625C5.25 3.22874 5.15103 2.90248 4.96561 2.62498C4.78018 2.34747 4.51663 2.13118 4.20828 2.00345C3.89993 1.87573 3.56063 1.84231 3.23329 1.90743C2.90594 1.97254 2.60526 2.13326 2.36926 2.36926C2.13326 2.60526 1.97254 2.90594 1.90743 3.23329C1.84231 3.56063 1.87573 3.89993 2.00345 4.20828C2.13118 4.51663 2.34747 4.78018 2.62498 4.96561C2.90248 5.15103 3.22874 5.25 3.5625 5.25H4.5V6.75H3.5625C3.22874 6.75 2.90248 6.84897 2.62498 7.0344C2.34747 7.21982 2.13118 7.48337 2.00345 7.79172C1.87573 8.10007 1.84231 8.43937 1.90743 8.76672C1.97254 9.09406 2.13326 9.39474 2.36926 9.63074C2.60526 9.86674 2.90594 10.0275 3.23329 10.0926C3.56063 10.1577 3.89993 10.1243 4.20828 9.99655C4.51663 9.86882 4.78018 9.65253 4.96561 9.37503C5.15103 9.09752 5.25 8.77126 5.25 8.4375V7.5H6.75V8.4375C6.75 8.77126 6.84897 9.09752 7.0344 9.37503C7.21982 9.65253 7.48337 9.86882 7.79172 9.99655C8.10007 10.1243 8.43937 10.1577 8.76672 10.0926C9.09406 10.0275 9.39474 9.86674 9.63074 9.63074C9.86674 9.39474 10.0275 9.09406 10.0926 8.76672C10.1577 8.43937 10.1243 8.10007 9.99655 7.79172C9.86882 7.48337 9.65253 7.21982 9.37503 7.0344C9.09752 6.84897 8.77126 6.75 8.4375 6.75ZM7.5 3.5625C7.5 3.37708 7.55498 3.19582 7.658 3.04165C7.76101 2.88748 7.90743 2.76732 8.07874 2.69636C8.25004 2.62541 8.43854 2.60684 8.6204 2.64301C8.80226 2.67919 8.9693 2.76848 9.10041 2.89959C9.23153 3.0307 9.32081 3.19775 9.35699 3.3796C9.39316 3.56146 9.3746 3.74996 9.30364 3.92127C9.23268 4.09257 9.11252 4.23899 8.95835 4.342C8.80418 4.44502 8.62292 4.5 8.4375 4.5H7.5V3.5625ZM2.625 3.5625C2.625 3.31386 2.72377 3.0754 2.89959 2.89959C3.0754 2.72377 3.31386 2.625 3.5625 2.625C3.81114 2.625 4.0496 2.72377 4.22541 2.89959C4.40123 3.0754 4.5 3.31386 4.5 3.5625V4.5H3.5625C3.31386 4.5 3.0754 4.40123 2.89959 4.22541C2.72377 4.0496 2.625 3.81114 2.625 3.5625ZM4.5 8.4375C4.5 8.62292 4.44502 8.80418 4.342 8.95835C4.23899 9.11252 4.09257 9.23268 3.92127 9.30364C3.74996 9.3746 3.56146 9.39316 3.3796 9.35699C3.19775 9.32081 3.0307 9.23153 2.89959 9.10041C2.76848 8.9693 2.67919 8.80226 2.64301 8.6204C2.60684 8.43854 2.62541 8.25004 2.69636 8.07874C2.76732 7.90743 2.88748 7.76101 3.04165 7.658C3.19582 7.55498 3.37708 7.5 3.5625 7.5H4.5V8.4375ZM5.25 5.25H6.75V6.75H5.25V5.25ZM8.4375 9.375C8.18886 9.375 7.9504 9.27623 7.77459 9.10041C7.59877 8.9246 7.5 8.68614 7.5 8.4375V7.5H8.4375C8.68614 7.5 8.9246 7.59877 9.10041 7.77459C9.27623 7.9504 9.375 8.18886 9.375 8.4375C9.375 8.68614 9.27623 8.9246 9.10041 9.10041C8.9246 9.27623 8.68614 9.375 8.4375 9.375Z" fill="#808080"/>
</svg>
