<svg width="24" height="24" viewBox="0 0 24 24" fill="none" xmlns="http://www.w3.org/2000/svg">
<path d="M12 7.5C11.11 7.5 10.24 7.76392 9.49998 8.25839C8.75995 8.75285 8.18318 9.45566 7.84259 10.2779C7.50199 11.1002 7.41288 12.005 7.58651 12.8779C7.76014 13.7508 8.18873 14.5526 8.81806 15.182C9.4474 15.8113 10.2492 16.2399 11.1221 16.4135C11.9951 16.5872 12.8998 16.4981 13.7221 16.1575C14.5444 15.8169 15.2472 15.2401 15.7417 14.5001C16.2361 13.76 16.5 12.89 16.5 12C16.4988 10.8069 16.0243 9.66304 15.1807 8.81939C14.337 7.97575 13.1931 7.50124 12 7.5ZM12 15C11.4067 15 10.8267 14.8241 10.3333 14.4944C9.83998 14.1648 9.45547 13.6962 9.2284 13.1481C9.00134 12.5999 8.94193 11.9967 9.05769 11.4147C9.17344 10.8328 9.45916 10.2982 9.87872 9.87868C10.2983 9.45912 10.8328 9.1734 11.4148 9.05764C11.9967 8.94189 12.5999 9.0013 13.1481 9.22836C13.6963 9.45542 14.1648 9.83994 14.4945 10.3333C14.8241 10.8266 15 11.4067 15 12C15 12.7956 14.684 13.5587 14.1214 14.1213C13.5588 14.6839 12.7957 15 12 15ZM20.25 12.2025C20.2538 12.0675 20.2538 11.9325 20.25 11.7975L21.6488 10.05C21.7221 9.95825 21.7729 9.85055 21.797 9.73559C21.8211 9.62063 21.8179 9.50161 21.7875 9.38813C21.5582 8.52619 21.2152 7.69861 20.7675 6.92719C20.7089 6.82624 20.6275 6.74036 20.5299 6.6764C20.4322 6.61243 20.321 6.57215 20.205 6.55875L17.9813 6.31125C17.8888 6.21375 17.795 6.12 17.7 6.03L17.4375 3.80063C17.424 3.68457 17.3836 3.57328 17.3195 3.47562C17.2554 3.37796 17.1693 3.29664 17.0682 3.23813C16.2965 2.79126 15.4689 2.4486 14.6072 2.21906C14.4937 2.18887 14.3746 2.18579 14.2596 2.21005C14.1447 2.23431 14.037 2.28525 13.9454 2.35875L12.2025 3.75C12.0675 3.75 11.9325 3.75 11.7975 3.75L10.05 2.35406C9.95829 2.28072 9.85059 2.22996 9.73563 2.20586C9.62067 2.18176 9.50165 2.18499 9.38817 2.21531C8.52637 2.44503 7.69884 2.78802 6.92723 3.23531C6.82628 3.29393 6.7404 3.37531 6.67644 3.47296C6.61248 3.57061 6.57219 3.68185 6.55879 3.79781L6.31129 6.02531C6.21379 6.11844 6.12004 6.21219 6.03004 6.30656L3.80067 6.5625C3.68462 6.576 3.57332 6.61643 3.47566 6.68056C3.37801 6.74469 3.29668 6.83075 3.23817 6.93188C2.79131 7.70359 2.44864 8.5311 2.21911 9.39281C2.18891 9.50637 2.18583 9.62543 2.21009 9.74039C2.23435 9.85536 2.28529 9.96302 2.35879 10.0547L3.75004 11.7975C3.75004 11.9325 3.75004 12.0675 3.75004 12.2025L2.35411 13.95C2.28076 14.0418 2.23 14.1494 2.2059 14.2644C2.1818 14.3794 2.18504 14.4984 2.21536 14.6119C2.44466 15.4738 2.78767 16.3014 3.23536 17.0728C3.29397 17.1738 3.37535 17.2596 3.473 17.3236C3.57065 17.3876 3.68189 17.4278 3.79785 17.4412L6.02161 17.6887C6.11473 17.7862 6.20848 17.88 6.30286 17.97L6.56254 20.1994C6.57604 20.3154 6.61647 20.4267 6.6806 20.5244C6.74473 20.622 6.83079 20.7034 6.93192 20.7619C7.70363 21.2087 8.53114 21.5514 9.39286 21.7809C9.50641 21.8111 9.62547 21.8142 9.74044 21.79C9.8554 21.7657 9.96306 21.7148 10.0547 21.6412L11.7975 20.25C11.9325 20.2537 12.0675 20.2537 12.2025 20.25L13.95 21.6487C14.0418 21.7221 14.1495 21.7729 14.2645 21.797C14.3794 21.8211 14.4984 21.8178 14.6119 21.7875C15.4739 21.5582 16.3014 21.2152 17.0729 20.7675C17.1738 20.7089 17.2597 20.6275 17.3236 20.5299C17.3876 20.4322 17.4279 20.321 17.4413 20.205L17.6888 17.9812C17.7863 17.8888 17.88 17.795 17.97 17.7L20.1994 17.4375C20.3155 17.424 20.4268 17.3836 20.5244 17.3194C20.6221 17.2553 20.7034 17.1693 20.7619 17.0681C21.2088 16.2964 21.5514 15.4689 21.781 14.6072C21.8112 14.4936 21.8143 14.3746 21.79 14.2596C21.7657 14.1446 21.7148 14.037 21.6413 13.9453L20.25 12.2025ZM18.7407 11.5931C18.7566 11.8641 18.7566 12.1359 18.7407 12.4069C18.7295 12.5924 18.7876 12.7755 18.9038 12.9206L20.2341 14.5828C20.0815 15.0679 19.886 15.5385 19.65 15.9891L17.5313 16.2291C17.3468 16.2495 17.1764 16.3377 17.0532 16.4766C16.8727 16.6795 16.6805 16.8717 16.4775 17.0522C16.3387 17.1754 16.2505 17.3458 16.23 17.5303L15.9947 19.6472C15.5443 19.8833 15.0736 20.0787 14.5885 20.2312L12.9254 18.9009C12.7923 18.7946 12.627 18.7367 12.4566 18.7369H12.4116C12.1406 18.7528 11.8689 18.7528 11.5979 18.7369C11.4123 18.7257 11.2292 18.7838 11.0841 18.9L9.41723 20.2312C8.9321 20.0786 8.4615 19.8831 8.01098 19.6472L7.77098 17.5312C7.7505 17.3467 7.66231 17.1764 7.52348 17.0531C7.32052 16.8727 7.12831 16.6805 6.94785 16.4775C6.8246 16.3387 6.65424 16.2505 6.46973 16.23L4.35286 15.9938C4.11679 15.5433 3.92132 15.0727 3.76879 14.5875L5.0991 12.9244C5.21527 12.7793 5.2734 12.5962 5.26223 12.4106C5.24629 12.1396 5.24629 11.8679 5.26223 11.5969C5.2734 11.4113 5.21527 11.2282 5.0991 11.0831L3.76879 9.41719C3.92144 8.93206 4.1169 8.46146 4.35286 8.01094L6.46879 7.77094C6.65331 7.75046 6.82367 7.66227 6.94692 7.52344C7.12738 7.32048 7.31958 7.12827 7.52254 6.94781C7.66193 6.82448 7.75048 6.65373 7.77098 6.46875L8.00629 4.35281C8.45676 4.11674 8.92737 3.92128 9.41254 3.76875L11.0757 5.09906C11.2208 5.21522 11.4039 5.27336 11.5894 5.26219C11.8604 5.24625 12.1322 5.24625 12.4032 5.26219C12.5887 5.27336 12.7718 5.21522 12.9169 5.09906L14.5829 3.76875C15.068 3.9214 15.5386 4.11686 15.9891 4.35281L16.2291 6.46875C16.2496 6.65326 16.3378 6.82363 16.4766 6.94688C16.6796 7.12734 16.8718 7.31954 17.0522 7.5225C17.1755 7.66133 17.3458 7.74952 17.5304 7.77L19.6472 8.00531C19.8833 8.45578 20.0788 8.9264 20.2313 9.41156L18.901 11.0747C18.7837 11.221 18.7255 11.406 18.7379 11.5931H18.7407Z" fill="white"/>
</svg>
