<svg width="40" height="40" viewBox="0 0 40 40" fill="none" xmlns="http://www.w3.org/2000/svg">
<path d="M29 20C29 20.1989 28.921 20.3897 28.7803 20.5303C28.6397 20.671 28.4489 20.75 28.25 20.75H11.75C11.5511 20.75 11.3603 20.671 11.2197 20.5303C11.079 20.3897 11 20.1989 11 20C11 19.8011 11.079 19.6103 11.2197 19.4697C11.3603 19.329 11.5511 19.25 11.75 19.25H28.25C28.4489 19.25 28.6397 19.329 28.7803 19.4697C28.921 19.6103 29 19.8011 29 20ZM11.75 14.75H28.25C28.4489 14.75 28.6397 14.671 28.7803 14.5303C28.921 14.3897 29 14.1989 29 14C29 13.8011 28.921 13.6103 28.7803 13.4697C28.6397 13.329 28.4489 13.25 28.25 13.25H11.75C11.5511 13.25 11.3603 13.329 11.2197 13.4697C11.079 13.6103 11 13.8011 11 14C11 14.1989 11.079 14.3897 11.2197 14.5303C11.3603 14.671 11.5511 14.75 11.75 14.75ZM28.25 25.25H11.75C11.5511 25.25 11.3603 25.329 11.2197 25.4697C11.079 25.6103 11 25.8011 11 26C11 26.1989 11.079 26.3897 11.2197 26.5303C11.3603 26.671 11.5511 26.75 11.75 26.75H28.25C28.4489 26.75 28.6397 26.671 28.7803 26.5303C28.921 26.3897 29 26.1989 29 26C29 25.8011 28.921 25.6103 28.7803 25.4697C28.6397 25.329 28.4489 25.25 28.25 25.25Z" fill="white"/>
</svg>
