<svg width="24" height="24" viewBox="0 0 24 24" fill="none" xmlns="http://www.w3.org/2000/svg">
<path d="M12.0084 5.37938C12.0505 4.79734 12.2427 4.23614 12.5663 3.75057C12.89 3.26499 13.334 2.87163 13.8551 2.60888C14.3761 2.34614 14.9564 2.22298 15.5393 2.25144C16.1221 2.2799 16.6876 2.45899 17.1806 2.77125C17.237 2.80813 17.2824 2.85951 17.312 2.91999C17.3417 2.98047 17.3545 3.04782 17.3491 3.11496C17.3437 3.1821 17.3204 3.24655 17.2815 3.30155C17.2426 3.35655 17.1896 3.40005 17.1281 3.4275C16.2711 3.81307 15.5437 4.43784 15.0331 5.22678C14.5226 6.01572 14.2507 6.93528 14.25 7.875C14.25 7.98469 14.25 8.09438 14.2612 8.20219C14.2664 8.27033 14.2529 8.3386 14.2221 8.3996C14.1913 8.4606 14.1444 8.51202 14.0865 8.54831C14.0285 8.5846 13.9618 8.60438 13.8935 8.6055C13.8252 8.60663 13.7578 8.58906 13.6987 8.55469C13.1463 8.23866 12.6944 7.77284 12.3953 7.211C12.0962 6.64915 11.9621 6.01418 12.0084 5.37938ZM22.5 15.0572C22.5013 15.4858 22.3826 15.9061 22.1573 16.2707C21.9319 16.6352 21.609 16.9293 21.225 17.1197L21.1838 17.1384L17.5434 18.6891C17.5075 18.7049 17.4701 18.7175 17.4319 18.7266L11.4319 20.2266C11.3724 20.2419 11.3114 20.2497 11.25 20.25H1.5C1.10218 20.25 0.720644 20.092 0.43934 19.8107C0.158035 19.5294 0 19.1478 0 18.75V15C0 14.6022 0.158035 14.2206 0.43934 13.9393C0.720644 13.658 1.10218 13.5 1.5 13.5H4.18969L6.31031 11.3784C6.58838 11.0991 6.91904 10.8777 7.28319 10.7269C7.64733 10.5761 8.03775 10.499 8.43188 10.5H13.125C13.5212 10.5 13.9122 10.5896 14.2688 10.7622C14.6254 10.9347 14.9383 11.1858 15.1841 11.4965C15.4298 11.8072 15.6021 12.1695 15.6879 12.5563C15.7738 12.943 15.7709 13.3442 15.6797 13.7297L19.6022 12.8278C19.9437 12.7374 20.3013 12.7266 20.6477 12.7962C20.994 12.8659 21.3197 13.0141 21.5996 13.2295C21.8796 13.4449 22.1064 13.7217 22.2625 14.0386C22.4186 14.3554 22.4999 14.7039 22.5 15.0572ZM21 15.0572C20.9999 14.9332 20.9712 14.8109 20.9162 14.6997C20.8611 14.5886 20.7812 14.4917 20.6827 14.4164C20.5841 14.3411 20.4695 14.2896 20.3478 14.2658C20.2261 14.242 20.1006 14.2465 19.9809 14.2791L19.9519 14.2866L13.6706 15.7313C13.6155 15.7436 13.5593 15.7498 13.5028 15.75H10.5C10.3011 15.75 10.1103 15.671 9.96967 15.5303C9.82902 15.3897 9.75 15.1989 9.75 15C9.75 14.8011 9.82902 14.6103 9.96967 14.4697C10.1103 14.329 10.3011 14.25 10.5 14.25H13.125C13.4234 14.25 13.7095 14.1315 13.9205 13.9205C14.1315 13.7095 14.25 13.4234 14.25 13.125C14.25 12.8266 14.1315 12.5405 13.9205 12.3295C13.7095 12.1185 13.4234 12 13.125 12H8.43188C8.23482 11.9994 8.03961 12.0379 7.85758 12.1134C7.67555 12.1889 7.51035 12.2998 7.37156 12.4397L5.25 14.5603V18.75H11.1562L17.0091 17.2866L20.5716 15.7697C20.7012 15.7014 20.8097 15.5989 20.8852 15.4732C20.9608 15.3476 21.0005 15.2038 21 15.0572ZM15.75 7.875C15.75 8.54251 15.9479 9.19504 16.3188 9.75005C16.6896 10.3051 17.2167 10.7376 17.8334 10.9931C18.4501 11.2485 19.1287 11.3154 19.7834 11.1852C20.4381 11.0549 21.0395 10.7335 21.5115 10.2615C21.9835 9.78948 22.3049 9.18812 22.4352 8.53343C22.5654 7.87875 22.4985 7.20015 22.2431 6.58345C21.9876 5.96675 21.5551 5.43964 21 5.06879C20.445 4.69794 19.7925 4.5 19.125 4.5C18.2299 4.5 17.3715 4.85558 16.7385 5.48852C16.1056 6.12145 15.75 6.9799 15.75 7.875Z" fill="#53B1FD"/>
</svg>
