<svg width="24" height="24" viewBox="0 0 24 24" fill="none" xmlns="http://www.w3.org/2000/svg">
<path d="M22.2806 9.9703L14.7806 2.4703C14.6757 2.36535 14.5421 2.29384 14.3967 2.26483C14.2512 2.23581 14.1004 2.25058 13.9633 2.30728C13.8262 2.36398 13.709 2.46005 13.6265 2.58335C13.5441 2.70666 13.5 2.85165 13.4999 2.99999V6.7828C11.0681 6.99093 8.38213 8.18155 6.17244 10.0556C3.51182 12.3131 1.85526 15.2222 1.50744 18.2466C1.48026 18.4817 1.52794 18.7194 1.64368 18.9259C1.75943 19.1323 1.93735 19.297 2.15212 19.3965C2.36689 19.496 2.60757 19.5252 2.83991 19.48C3.07225 19.4348 3.28441 19.3175 3.44619 19.1447C4.47744 18.0469 8.14682 14.5753 13.4999 14.2697V18C13.5 18.1483 13.5441 18.2933 13.6265 18.4166C13.709 18.5399 13.8262 18.636 13.9633 18.6927C14.1004 18.7494 14.2512 18.7642 14.3967 18.7352C14.5421 18.7061 14.6757 18.6346 14.7806 18.5297L22.2806 11.0297C22.4208 10.8891 22.4996 10.6986 22.4996 10.5C22.4996 10.3014 22.4208 10.1109 22.2806 9.9703ZM14.9999 16.1897V13.5C14.9999 13.3011 14.9209 13.1103 14.7803 12.9697C14.6396 12.829 14.4489 12.75 14.2499 12.75C11.6174 12.75 9.05338 13.4372 6.629 14.7937C5.39427 15.4877 4.24383 16.322 3.20057 17.28C3.74432 15.045 5.11494 12.9197 7.14276 11.1994C9.31963 9.35343 11.9765 8.24999 14.2499 8.24999C14.4489 8.24999 14.6396 8.17097 14.7803 8.03032C14.9209 7.88967 14.9999 7.6989 14.9999 7.49999V4.81124L20.6896 10.5L14.9999 16.1897Z" fill="#808080"/>
</svg>
